Coordinates
version=1
nRows=12
nColumns=34
inDegrees=yes

Units are S.I. units (second, meters, Newtons, ...)
If the header above contains a line with 'inDegrees', this indicates whether rotational values are in degrees (yes) or radians (no).

endheader
time	pelvis_tilt	pelvis_list	pelvis_rotation	pelvis_tx	pelvis_ty	pelvis_tz	hip_flexion_r	hip_adduction_r	hip_rotation_r	knee_angle_r	ankle_angle_r	subtalar_angle_r	mtp_angle_r	hip_flexion_l	hip_adduction_l	hip_rotation_l	knee_angle_l	ankle_angle_l	subtalar_angle_l	mtp_angle_l	lumbar_extension	lumbar_bending	lumbar_rotation	arm_flex_r	arm_add_r	arm_rot_r	elbow_flex_r	pro_sup_r	arm_flex_l	arm_add_l	arm_rot_l	elbow_flex_l	pro_sup_l
      0.00000000	     -0.45999545	      1.82930338	      0.88975252	      0.55096147	      0.87491266	     -0.07783977	     -1.45075855	     -9.25855198	    -12.70225339	      4.32294700	      8.54558710	      1.88682400	      0.00000000	     -1.00817989	     -8.04063857	    -14.28543576	      3.85929637	      8.45972584	      0.53997241	      0.00000000	     -0.76178131	     -0.95310015	      0.50684154	     58.38197777	     13.50679641	     62.95970659	    117.17778792	    111.91233824	     43.37324842	      8.77595822	     46.82295027	    115.93392751	     91.97041146
      0.01666670	     -2.51333827	      1.10231758	     -0.42397295	      0.55256465	      0.87362665	     -0.07736891	      1.09990436	     -8.57425227	    -12.43391924	      4.43605015	     10.58976069	      3.34606987	      0.00000000	      1.14108747	     -8.57138963	    -17.34394150	      3.49918341	      9.54552448	      0.59827799	      0.00000000	      1.92003405	     -0.03054237	      0.88868013	     61.09889906	     13.25488817	     63.90388546	    119.63548877	    111.30655888	     44.36719256	      9.08241062	     46.39144646	    117.32377953	     92.49296460
      0.03333330	     -2.88677808	      1.05573040	     -1.21142259	      0.55240756	      0.87182006	     -0.07765927	      1.57424084	     -8.46354656	    -12.39805693	      3.96116221	     10.29480878	      3.09576579	      0.00000000	      1.53474393	     -8.57030803	    -18.76503651	      3.38726752	      9.58774666	      0.50051592	      0.00000000	      2.34017731	     -0.06411721	      1.14843077	     62.10519867	     13.24284435	     64.71172596	    120.90875529	    110.92483921	     44.88879325	      8.60861708	     46.15203462	    117.40214489	     92.71804311
      0.05000000	     -2.92516140	      1.40001824	     -1.60755534	      0.55139812	      0.87418540	     -0.07709080	      1.54797031	     -8.80639990	    -12.04548206	      3.21175271	     10.04371128	      3.08841109	      0.00000000	      1.17708516	     -8.11552344	    -19.43799143	      2.64077617	      9.13980227	      0.23810771	      0.00000000	      2.52828722	     -0.59731401	      1.43979061	     62.71575898	     13.01036774	     66.48616473	    120.88418276	    110.64071785	     45.36174348	      8.45458993	     46.77095728	    116.40633999	     92.76705647
      0.06666670	     -3.00955410	      1.48647950	     -1.98761178	      0.55068184	      0.87463994	     -0.07612517	      1.60870254	     -8.80430062	    -11.57671916	      2.71319798	      9.65811851	      2.95268677	      0.00000000	      1.01795295	     -7.99348214	    -19.40750040	      2.27810578	      8.96995877	     -0.07663698	      0.00000000	      2.69499690	     -0.62488730	      1.92616439	     62.90573347	     12.62877394	     68.32997027	    120.54275593	    110.35887014	     45.32470965	      8.44863716	     47.45465596	    115.70215442	     92.61385450
      0.08333330	     -3.01281975	      1.61402367	     -2.16018280	      0.55007001	      0.87383701	     -0.07626705	      1.53468455	     -8.85074315	    -11.17774382	      2.31622331	      9.44798971	      2.76383810	      0.00000000	      0.85478027	     -7.77775992	    -19.21922244	      2.00411551	      8.89584097	     -0.42291990	      0.00000000	      2.83556530	     -0.71017605	      2.15012919	     62.83621596	     12.21353118	     69.50875822	    120.08520328	    110.11296948	     45.07265950	      8.41341064	     47.89193920	    115.13690288	     92.35826197
      0.10000000	     -3.00371502	      1.65994240	     -2.26232341	      0.54954493	      0.87203535	     -0.07652980	      1.60066710	     -8.89409820	    -11.12227061	      2.22757640	      9.44659300	      2.76458707	      0.00000000	      0.86558069	     -7.72675458	    -19.13926213	      2.06126159	      8.86591382	     -0.40531446	      0.00000000	      2.76078236	     -0.65084513	      2.11920314	     62.81534570	     12.10611673	     69.55816053	    120.04888595	    110.09746520	     45.04082952	      8.40372559	     47.90117289	    115.11275157	     92.33729487
      0.11666670	     -2.94128951	      1.76433977	     -2.21761602	      0.54921055	      0.87262518	     -0.07618776	      1.49748632	     -9.00928549	    -10.62596364	      2.09085608	      9.32610094	      2.84331289	      0.00000000	      0.85965812	     -7.59153993	    -18.72883822	      2.16038420	      8.76607220	     -0.43725552	      0.00000000	      2.75892775	     -0.71165877	      2.24338561	     62.72223648	     11.53643714	     69.91175708	    119.76843560	    110.01254350	     44.72798363	      8.34109042	     47.95987769	    115.13655588	     92.20451554
      0.13333330	     -2.93137778	      1.76159518	     -2.21562476	      0.54830330	      0.87124197	     -0.07575384	      1.51338509	     -9.00205550	    -10.62533923	      2.07412404	      9.32730750	      2.83716168	      0.00000000	      0.84656278	     -7.57555612	    -18.72317854	      2.16435695	      8.76507283	     -0.44238555	      0.00000000	      2.76375910	     -0.71028870	      2.24651960	     62.72539338	     11.52952858	     69.91505563	    119.76185420	    110.00995697	     44.72942359	      8.34484355	     47.95775515	    115.13906118	     92.20057996
      0.15000000	     -2.85470908	      1.76439275	     -2.37914583	      0.54971964	      0.87397582	     -0.07264210	      1.34925743	     -8.90714453	     -9.85634493	      1.84088765	      8.79337971	      1.87946552	      0.00000000	      0.50255523	     -7.55023966	    -18.16243565	      1.78427580	      7.97826248	     -1.83304384	      0.00000000	      2.80848048	     -0.62491042	      3.00600589	     62.55875429	     11.05256749	     70.00221567	    118.76078734	    109.36814882	     44.33707021	      8.56817391	     47.56600999	    115.79407761	     91.26514866
      0.16666670	     -2.87823328	      1.71474802	     -2.36143818	      0.54896258	      0.87492612	     -0.07168470	      1.33222045	     -8.77927772	     -9.81153284	      1.82803315	      8.77643173	      1.87049964	      0.00000000	      0.53006850	     -7.68128664	    -18.13196173	      1.84285046	      7.89717808	     -1.82829645	      0.00000000	      2.79374394	     -0.81684282	      3.07650498	     62.57710102	     11.14958329	     69.96777132	    118.78280199	    109.33742075	     44.31569103	      8.48720453	     47.53327093	    115.81822646	     91.22336226
      0.18333330	     -2.94642353	      1.62031730	     -2.48165422	      0.54922273	      0.87459240	     -0.07132118	      1.33771148	     -8.55575957	     -8.92441825	      1.68022183	      8.28136988	      0.73121927	      0.00000000	      0.62227164	     -7.86917959	    -17.86520176	      1.94171443	      7.05245071	     -2.56130245	      0.00000000	      2.73943335	     -0.68659956	      2.79348317	     62.56790546	     11.63904885	     69.72598288	    118.75251501	    100.48548910	     44.19305545	      8.19025852	     47.73063924	    116.48575504	     78.94261979
